<svg xmlns="http://www.w3.org/2000/svg" xmlns:xlink="http://www.w3.org/1999/xlink" id="Layer_1" x="0px" y="0px" viewBox="0 0 151.1 50.4" style="enable-background:new 0 0 151.1 50.4;" xml:space="preserve"><style type="text/css"> .st0{fill:#4850BE;} .st1{fill:none;stroke:#979797;stroke-opacity:0;} .st2{fill:#ffffff;} </style><title>Logo-sharp-with-text</title><desc>Created with Sketch.</desc><g id="Page-1"><g id="Rectangle"><g><rect id="path-1" x="0.4" y="24.9" class="st0" width="10.6" height="10.3"/></g><rect x="0.5" y="25" class="st1" width="10.5" height="10.1"/></g><g id="Rectangle_1_"><g><rect id="path-2" x="0.4" y="12.5" class="st0" width="10.6" height="10.3"/></g><rect x="0.5" y="12.6" class="st1" width="10.5" height="10.1"/></g><g id="Rectangle_2_"><g><rect id="path-3" x="0.4" y="0.4" class="st0" width="10.6" height="10.3"/></g><rect x="0.5" y="0.5" class="st1" width="10.5" height="10.1"/></g><g id="Rectangle_3_"><g><rect id="path-4" x="13.2" y="0.4" class="st0" width="10.6" height="10.3"/></g><rect x="13.2" y="0.5" class="st1" width="10.5" height="10.1"/></g><g id="Rectangle_4_"><g><rect id="path-5" x="25.6" y="0.4" class="st0" width="10.6" height="10.3"/></g><rect x="25.6" y="0.5" class="st1" width="10.5" height="10.1"/></g><g id="Rectangle_5_"><g><polygon id="path-6" class="st0" points="38,0.4 51.6,0.4 48.5,10.8 38,10.8 "/></g><path class="st1" d="M38,0.5v10.2h10.4l3.1-10.2H38z"/></g><g id="Rectangle_6_"><g><rect id="path-7" x="25.6" y="12.5" class="st0" width="10.6" height="10.3"/></g><rect x="25.6" y="12.6" class="st1" width="10.5" height="10.1"/></g><g id="Rectangle_7_"><g><polygon id="path-8" class="st0" points="37.8,24.9 44.9,24.9 41.8,35.2 37.8,35.2 "/></g><path class="st1" d="M37.8,25v10.2h3.9l3-10.2H37.8z"/></g><g id="Rectangle_8_"><g><rect id="path-9" x="12.8" y="24.9" class="st0" width="10.6" height="10.3"/></g><rect x="12.9" y="25" class="st1" width="10.5" height="10.1"/></g><g id="Rectangle_9_"><g><rect id="path-10" x="25.3" y="24.9" class="st0" width="10.6" height="10.3"/></g><rect x="25.3" y="25" class="st1" width="10.5" height="10.1"/></g><g id="Rectangle_10_"><g><rect id="path-11" x="0.4" y="37.1" class="st0" width="10.6" height="10.3"/></g><rect x="0.5" y="37.1" class="st1" width="10.5" height="10.1"/></g><g id="Rectangle_11_"><g><rect id="path-12" x="25.3" y="37.1" class="st0" width="10.6" height="10.3"/></g><rect x="25.3" y="37.1" class="st1" width="10.5" height="10.1"/></g><g><path class="st2" d="M58.8,18.8H66l1.4,4.1h4.4L64.3,3h-3.8l-7.4,19.9h4.4L58.8,18.8z M62.4,8l2.5,7.4h-5L62.4,8z"/><path class="st2" d="M81.5,23.2c2.3,0,4.2-0.6,5.6-1.8c1.4-1.2,2.2-2.9,2.4-5.1h-4.1c-0.1,1.2-0.4,2.1-1.1,2.7 c-0.6,0.6-1.6,0.9-2.8,0.9c-1.4,0-2.4-0.5-3.1-1.5c-0.7-1-1-2.6-1-4.7v-1.5c0-2.1,0.4-3.6,1-4.6c0.7-1,1.7-1.5,3.1-1.5 c1.3,0,2.2,0.3,2.8,0.9c0.6,0.6,1,1.5,1.1,2.8h4.1c-0.2-2.2-1-3.9-2.4-5.2c-1.4-1.2-3.2-1.8-5.5-1.8c-1.7,0-3.1,0.4-4.4,1.2 c-1.3,0.8-2.2,1.9-2.9,3.4c-0.7,1.5-1,3.1-1,5.1v1.2c0,3,0.7,5.4,2.2,7.1C76.9,22.3,78.9,23.2,81.5,23.2z"/><polygon class="st2" points="97.1,22.9 101.2,22.9 101.2,6.3 107.3,6.3 107.3,3 91.1,3 91.1,6.3 97.1,6.3 "/><rect x="110.4" y="3" class="st2" width="4.1" height="19.9"/><polygon class="st2" points="135.3,3 130.7,3 126.2,18 121.8,3 117.2,3 124.1,22.9 128.4,22.9 "/><polygon class="st2" points="141.8,19.6 141.8,14.3 149.7,14.3 149.7,11.1 141.8,11.1 141.8,6.3 151,6.3 151,3 137.7,3 137.7,22.9 151.1,22.9 151.1,19.6 "/><polygon class="st2" points="54.8,50.2 58.9,50.2 58.9,42 66.7,42 66.7,38.7 58.9,38.7 58.9,33.6 67.7,33.6 67.7,30.3 54.8,30.3 "/><polygon class="st2" points="74.7,41.6 82.6,41.6 82.6,38.3 74.7,38.3 74.7,33.6 83.9,33.6 83.9,30.3 70.6,30.3 70.6,50.2 84,50.2 84,46.9 74.7,46.9 "/><polygon class="st2" points="99,43.4 91,30.3 86.9,30.3 86.9,50.2 91,50.2 91,37.1 99,50.2 103.1,50.2 103.1,30.3 99,30.3 "/><path class="st2" d="M111.8,34.8c0.7-1,1.7-1.5,3.1-1.5c1.3,0,2.2,0.3,2.8,0.9c0.6,0.6,1,1.5,1.1,2.8h4.1c-0.2-2.2-1-3.9-2.4-5.2 c-1.4-1.2-3.2-1.8-5.5-1.8c-1.7,0-3.1,0.4-4.4,1.2c-1.3,0.8-2.2,1.9-2.9,3.4c-0.7,1.5-1,3.1-1,5.1v1.2c0,3,0.7,5.4,2.2,7.1 c1.5,1.7,3.5,2.6,6,2.6c2.3,0,4.2-0.6,5.6-1.8c1.4-1.2,2.2-2.9,2.4-5.1h-4.1c-0.1,1.2-0.4,2.1-1.1,2.7c-0.6,0.6-1.6,0.9-2.8,0.9 c-1.4,0-2.4-0.5-3.1-1.5c-0.7-1-1-2.6-1-4.7v-1.5C110.8,37.3,111.2,35.8,111.8,34.8z"/><polygon class="st2" points="130,41.6 137.9,41.6 137.9,38.3 130,38.3 130,33.6 139.2,33.6 139.2,30.3 125.9,30.3 125.9,50.2 139.3,50.2 139.3,46.9 130,46.9 "/></g></g></svg>